<svg xmlns="http://www.w3.org/2000/svg"  viewBox="0 0 64 64" width="64px" height="64px"><radialGradient id="nc5Q~REL4rok6yEw7AIeLa" cx="32" cy="34.224" r="45.99" gradientTransform="matrix(1 0 0 -1 0 66)" gradientUnits="userSpaceOnUse"><stop offset="0" stop-color="#afeeff"/><stop offset=".193" stop-color="#bbf1ff"/><stop offset=".703" stop-color="#d7f8ff"/><stop offset="1" stop-color="#e1faff"/></radialGradient><path fill="url(#nc5Q~REL4rok6yEw7AIeLa)" d="M63.92,16.76C64.39,19,62.67,21,60.5,21H54c-1.1,0-2,0.9-2,2s0.9,2,2,2h5.5	c2.17,0,3.89,2,3.42,4.24C62.58,30.88,61.06,32,59.39,32H47v12h6.5c2.17,0,3.89,2,3.42,4.24C56.58,49.88,55.06,51,53.39,51H50	c-1.1,0-2,0.9-2,2s0.9,2,2,2h0.5c1.92,0,3.5,1.58,3.5,3.5S52.42,62,50.5,62h-42c-2.17,0-3.89-2-3.42-4.24	C5.42,56.12,6.94,55,8.61,55H9c0.83,0,1.58-0.34,2.12-0.88C11.66,53.58,12,52.83,12,52c0-1.66-1.34-3-3-3H3.61	c-1.67,0-3.19-1.12-3.53-2.76C-0.39,44,1.33,42,3.5,42H4c1.11,0,2-0.9,2-2s-0.89-2-2-2H3.5c-2.17,0-3.89-2-3.42-4.24	C0.42,32.12,1.94,31,3.61,31H18V21H3.5c-2.17,0-3.89-2-3.42-4.24C0.42,15.12,1.94,14,3.61,14H7c1.1,0,2-0.9,2-2s-0.9-2-2-2H6.5	C4.57,10,3,8.43,3,6.5C3,4.58,4.57,3,6.5,3h54c2.17,0,3.89,2,3.42,4.24C63.58,8.88,62.05,10,60.38,10H60c-1.1,0-2,0.9-2,2s0.9,2,2,2	h0.38C62.06,14,63.58,15.12,63.92,16.76z"/><path fill="#fff" d="M43.172,44H34c-0.53,0-1.039,0.211-1.414,0.586L27,50.172V46c0-1.104-0.896-2-2-2h-8V14h34v22.172	L43.172,44z"/><linearGradient id="nc5Q~REL4rok6yEw7AIeLb" x1="33.786" x2="30.538" y1="10.681" y2="54.901" gradientTransform="matrix(1 0 0 -1 0 66)" gradientUnits="userSpaceOnUse"><stop offset="0" stop-color="#7328e1"/><stop offset=".72" stop-color="#9146ff"/><stop offset="1" stop-color="#b469ff"/></linearGradient><path fill="url(#nc5Q~REL4rok6yEw7AIeLb)" d="M54.849,37.761c0.036-0.087,0.058-0.177,0.081-0.268c0.009-0.036,0.024-0.069,0.031-0.106	C54.987,37.26,55,37.13,55,37V12c0-1.104-0.896-2-2-2H15c-0.008,0-0.015,0.002-0.023,0.002c-0.06,0.001-0.119,0.012-0.179,0.018	c-0.073,0.008-0.148,0.011-0.219,0.026c-0.011,0.002-0.021,0.007-0.031,0.01c-0.244,0.057-0.471,0.154-0.672,0.291	c-0.004,0.003-0.007,0.007-0.011,0.009c-0.101,0.07-0.196,0.147-0.282,0.233c-0.038,0.038-0.069,0.084-0.104,0.126	c-0.048,0.057-0.1,0.112-0.142,0.174c-0.025,0.037-0.042,0.08-0.065,0.12c-0.044,0.076-0.088,0.151-0.122,0.233	c-0.002,0.005-0.006,0.01-0.008,0.015l-4,10C9.048,21.493,9,21.745,9,22v28c0,1.104,0.896,2,2,2h11v4c0,1.104,0.896,2,2,2h3	c0.53,0,1.039-0.211,1.414-0.586L33.828,52H40c0.53,0,1.039-0.211,1.414-0.586l4-4l9-9c0.095-0.095,0.179-0.198,0.252-0.308	c0.048-0.072,0.082-0.149,0.12-0.225C54.806,37.841,54.832,37.803,54.849,37.761z M43.172,44H34c-0.53,0-1.039,0.211-1.414,0.586	L27,50.172V46c0-1.104-0.896-2-2-2h-8V14h34v22.172L43.172,44z"/><linearGradient id="nc5Q~REL4rok6yEw7AIeLc" x1="31.347" x2="28.249" y1="11.854" y2="54.035" gradientTransform="matrix(1 0 0 -1 0 66)" gradientUnits="userSpaceOnUse"><stop offset="0" stop-color="#7328e1"/><stop offset=".72" stop-color="#9146ff"/><stop offset="1" stop-color="#b469ff"/></linearGradient><path fill="url(#nc5Q~REL4rok6yEw7AIeLc)" d="M29.5,36c-1.381,0-2.5-1.119-2.5-2.5v-9c0-1.381,1.119-2.5,2.5-2.5s2.5,1.119,2.5,2.5v9	C32,34.881,30.881,36,29.5,36z"/><linearGradient id="nc5Q~REL4rok6yEw7AIeLd" x1="42.287" x2="39.189" y1="12.672" y2="54.853" gradientTransform="matrix(1 0 0 -1 0 66)" gradientUnits="userSpaceOnUse"><stop offset="0" stop-color="#7328e1"/><stop offset=".72" stop-color="#9146ff"/><stop offset="1" stop-color="#b469ff"/></linearGradient><path fill="url(#nc5Q~REL4rok6yEw7AIeLd)" d="M40.5,36c-1.381,0-2.5-1.119-2.5-2.5v-9c0-1.381,1.119-2.5,2.5-2.5s2.5,1.119,2.5,2.5v9	C43,34.881,41.881,36,40.5,36z"/></svg>