<svg xmlns="http://www.w3.org/2000/svg" xmlns:xlink="http://www.w3.org/1999/xlink" viewBox="0,0,256,256" width="30px" height="30px" fill-rule="nonzero"><g transform=""><g fill-opacity="0.63137" fill="#000000" fill-rule="nonzero" stroke="none" stroke-width="1" stroke-linecap="butt" stroke-linejoin="miter" stroke-miterlimit="10" stroke-dasharray="" stroke-dashoffset="0" font-family="none" font-weight="none" font-size="none" text-anchor="none" style="mix-blend-mode: normal"><g transform="scale(8.53333,8.53333)"><path d="M24,4h-18c-1.105,0 -2,0.895 -2,2v18c0,1.105 0.895,2 2,2h18c1.105,0 2,-0.895 2,-2v-18c0,-1.105 -0.895,-2 -2,-2zM20.806,19.73c-1.761,-3.91 -7.23,-5.284 -7.256,-8.115c-0.051,-1.138 0.48,-1.39 0.48,-1.39c-0.948,2.579 3.464,4.652 4.98,5.764c1.516,1.112 2.149,2.756 2.149,2.756c1.744,-0.455 2.048,-1.997 2.048,-1.997l-4.803,-7.812c0.152,-0.379 0.531,-1.542 0.531,-1.542c-0.758,0.051 -2.451,1.139 -2.451,1.139c-6.271,-1.408 -9.103,2.696 -9.103,6.8c0,3.876 3.388,7.905 7.989,7.905c4.407,0 5.895,-2.969 5.895,-2.969c0,0 -0.838,3.731 -6.272,3.731c-4.915,0 -8.985,-4.208 -8.985,-8.818c0,-7.584 6.8,-9.371 10.622,-8.063c1.538,-1.139 3.598,-1.098 3.598,-1.098l-0.609,2.563l4.381,8.062c-0.084,2.528 -3.194,3.084 -3.194,3.084z"></path></g></g></g></svg>