<?xml version="1.0" encoding="utf-8"?>

<!DOCTYPE svg PUBLIC "-//W3C//DTD SVG 1.1//EN" "http://www.w3.org/Graphics/SVG/1.1/DTD/svg11.dtd">
<!-- Uploaded to: SVG Repo, www.svgrepo.com, Generator: SVG Repo Mixer Tools -->
<svg height="800px" width="800px" version="1.1" id="_x32_" xmlns="http://www.w3.org/2000/svg" xmlns:xlink="http://www.w3.org/1999/xlink" 
	 viewBox="0 0 512 512"  xml:space="preserve">
<style type="text/css">
	.st0{fill:#000000;}
</style>
<g>
	<path class="st0" d="M461.046,372.68l24.61-2.894c-21.101-24.89-42.748-42.21-62.228-54.114l21.646-11.91l-55.204-31.391
		l37.338-17.858l-64.94-37.338l27.601-17.858l-60.774-21.27c5.808-7.003,8.066-14.216,7.94-20.919l119.494-89.907
		c3.138-2.362,3.942-6.752,1.86-10.079l-3.621-5.746c-2.222-3.551-6.885-4.613-10.436-2.397l-56.798,35.633l-3.816,19.13
		l-6.451-52.652c-11.784-13.63-18.83-1.685-18.83-1.685l0.168,54.658l-39.002,26.142c-6.248-3.027-13.014-3.341-18.2,0.489
		l-37.423,24.086c0,0-41.868-12.302-67.847,6.094c-7.654,5.424-17.313,17.321-60.606,9.737c-4.501-0.79-33.208-3.872-59.174-11.33
		c-0.965-12.106-10.988-21.668-23.345-21.668c-3.285,0-6.41,0.678-9.254,1.902c-21.836-37.716-60.313-9.373-35.947,33.263
		l12.029,24.82l7.283,3.271l7.786,3.495c-0.112,12.421,1.86,38.911,19.515,50.94c-0.923-2.74,2.859-23.401,9.31-38.002l3.02,1.356
		l12.134,5.312c0.657,12.923,4.138,32.529,18.383,42.245c-0.762-2.306,1.964-17.991,6.864-31.187l23.862,10.45
		c1.965,11.365,6.57,24.065,17.167,31.292c-0.587-1.789,0.922-11.603,3.9-22.066l36.807,16.126c1.328,0.594,2.257,1.852,2.446,3.292
		l0.783,12.854c0.272,2.118-1.076,4.096-3.159,4.613l-44.083,22.318c-7.039-8.639-13.036-19.458-13.064-21.366
		c-6.57,8.876-6.263,20.717-4.404,30.209l-18.27,9.254c-8.464-10.666-16.034-26.77-15.866-29.216
		c-10.023,11.547-8.73,29.076-6.402,40.483l-11.568,5.864c0,0,2.872,4.613,8.01,12.134c6.717,9.862,17.509,28.797,22.192,32.474
		c9.352,7.318,22.338,15.237,22.338,15.237l-7.269-26.861l20.675,7.129v-16.237c135.192-41.602,168.602,58.6,181.121,94.387H512
		C503.445,445.169,471.53,387.455,461.046,372.68z"/>
</g>
</svg>