<svg xmlns="http://www.w3.org/2000/svg" viewBox="0 0 24 24" width="50px" height="50px" fill="#1DA1F2">
  <path d="M23.954 4.586c-.885.389-1.83.65-2.828.772 1.015-.611 1.798-1.577 2.165-2.732-.951.565-2.005.975-3.125 1.194-.896-.959-2.174-1.558-3.588-1.558-2.71 0-4.904 2.194-4.904 4.902 0 .385.044.758.13 1.117-4.072-.204-7.68-2.146-10.083-5.098-.42.725-.66 1.568-.66 2.467 0 1.702.867 3.207 2.183 4.086-.804-.027-1.56-.246-2.225-.615v.061c0 2.375 1.688 4.349 3.937 4.791-.412.112-.847.17-1.293.17-.315 0-.62-.031-.922-.09.622 1.936 2.428 3.347 4.573 3.385-1.67 1.308-3.783 2.087-6.067 2.087-.39 0-.776-.022-1.16-.067 2.155 1.378 4.713 2.176 7.47 2.176 8.96 0 13.878-7.439 13.878-13.879 0-.21 0-.42-.014-.63 .955-.695 1.788-1.563 2.446-2.546l.002-.006z"/>
</svg>
